# This file uses centimeters as units for non-parametric coordinates.

mtllib Saucer Export.mtl
g default
v 0.951057 0.006256 -0.309017
v 0.809018 0.006256 -0.587786
v 0.587786 0.006256 -0.809017
v 0.309017 0.006256 -0.951057
v 0.000000 0.006256 -1.000000
v -0.309017 0.006256 -0.951057
v -0.587785 0.006256 -0.809017
v -0.809017 0.006256 -0.587785
v -0.951057 0.006256 -0.309017
v -1.000000 0.006256 0.000000
v -0.951057 0.006256 0.309017
v -0.809017 0.006256 0.587785
v -0.587785 0.006256 0.809017
v -0.309017 0.006256 0.951057
v -0.000000 0.006256 1.000000
v 0.309017 0.006256 0.951057
v 0.587785 0.006256 0.809017
v 0.809017 0.006256 0.587785
v 0.951057 0.006256 0.309017
v 1.000000 0.006256 0.000000
v 0.951057 0.084335 -0.309017
v 0.809018 0.084335 -0.587786
v 0.587786 0.084335 -0.809017
v 0.309017 0.084335 -0.951057
v 0.000000 0.084335 -1.000000
v -0.309017 0.084335 -0.951057
v -0.587785 0.084335 -0.809017
v -0.809017 0.084335 -0.587785
v -0.951057 0.084335 -0.309017
v -1.000000 0.084335 0.000000
v -0.951057 0.084335 0.309017
v -0.809017 0.084335 0.587785
v -0.587785 0.084335 0.809017
v -0.309017 0.084335 0.951057
v -0.000000 0.084335 1.000000
v 0.309017 0.084335 0.951057
v 0.587785 0.084335 0.809017
v 0.809017 0.084335 0.587785
v 0.951057 0.084335 0.309017
v 1.000000 0.084335 0.000000
v 0.000000 0.006256 0.000000
v 0.951057 0.216843 -0.309017
v 0.809018 0.216843 -0.587786
v 0.587786 0.216843 -0.809017
v 0.309017 0.216843 -0.951057
v 0.000000 0.216843 -1.000000
v -0.309017 0.216843 -0.951057
v -0.587785 0.216843 -0.809017
v -0.809017 0.216843 -0.587785
v -0.951057 0.216843 -0.309017
v -1.000000 0.216843 0.000000
v -0.951057 0.216843 0.309017
v -0.809017 0.216843 0.587785
v -0.587785 0.216843 0.809017
v -0.309017 0.216843 0.951057
v -0.000000 0.216843 1.000000
v 0.309017 0.216843 0.951057
v 0.587785 0.216843 0.809017
v 0.809017 0.216843 0.587785
v 0.951057 0.216843 0.309017
v 1.000000 0.216843 0.000000
v 2.399836 0.276253 -0.779752
v 2.041422 0.276253 -1.483180
v 2.041422 0.408762 -1.483180
v 2.399836 0.408762 -0.779752
v 1.483180 0.276253 -2.041422
v 1.483180 0.408762 -2.041422
v 0.779754 0.276253 -2.399836
v 0.779754 0.408762 -2.399836
v -0.000000 0.276253 -2.523337
v -0.000000 0.408762 -2.523337
v -0.779754 0.276253 -2.399836
v -0.779754 0.408762 -2.399836
v -1.483180 0.276253 -2.041422
v -1.483180 0.408762 -2.041422
v -2.041422 0.276253 -1.483180
v -2.041422 0.408762 -1.483180
v -2.399835 0.276253 -0.779754
v -2.399835 0.408762 -0.779754
v -2.523336 0.276253 0.000000
v -2.523336 0.408762 0.000000
v -2.399835 0.276253 0.779754
v -2.399835 0.408762 0.779754
v -2.041422 0.276253 1.483180
v -2.041422 0.408762 1.483180
v -1.483180 0.276253 2.041422
v -1.483180 0.408762 2.041422
v -0.779754 0.276253 2.399835
v -0.779754 0.408762 2.399835
v 0.000000 0.276253 2.523336
v 0.000000 0.408762 2.523336
v 0.779754 0.276253 2.399835
v 0.779754 0.408762 2.399835
v 1.483180 0.276253 2.041422
v 1.483180 0.408762 2.041422
v 2.041422 0.276253 1.483180
v 2.041422 0.408762 1.483180
v 2.399835 0.276253 0.779754
v 2.399835 0.408762 0.779754
v 2.523336 0.276253 0.000002
v 2.523336 0.408762 0.000002
v 0.951057 0.146380 -0.309017
v 0.809018 0.146380 -0.587786
v -0.000000 0.146380 0.000000
v 0.587786 0.146380 -0.809017
v 0.309017 0.146380 -0.951057
v -0.000000 0.146380 -1.000000
v -0.309017 0.146380 -0.951057
v -0.587785 0.146380 -0.809017
v -0.809017 0.146380 -0.587785
v -0.951057 0.146380 -0.309017
v -1.000000 0.146380 0.000000
v -0.951057 0.146380 0.309017
v -0.809017 0.146380 0.587785
v -0.587785 0.146380 0.809017
v -0.309017 0.146380 0.951057
v -0.000000 0.146380 1.000000
v 0.309017 0.146380 0.951057
v 0.587785 0.146380 0.809017
v 0.809017 0.146380 0.587785
v 0.951057 0.146380 0.309017
v 1.000000 0.146380 0.000000
vt 0.778478 0.488663
vt 0.739402 0.488663
vt 0.739402 0.511337
vt 0.778478 0.511337
vt 0.676891 0.488663
vt 0.676891 0.511337
vt 0.395413 0.299165
vt 0.402953 0.275961
vt 0.597066 0.488663
vt 0.597066 0.511337
vt 0.520284 0.294545
vt 0.719570 0.549280
vt 0.615409 0.549280
vt 0.501259 0.353097
vt 0.507738 0.488663
vt 0.507738 0.511337
vt 0.615409 0.566767
vt 0.719570 0.566767
vt 0.402953 0.251563
vt 0.417654 0.488663
vt 0.417654 0.511337
vt 0.515639 0.549280
vt 0.520284 0.232979
vt 0.335630 0.488663
vt 0.335630 0.511337
vt 0.515639 0.566767
vt 0.395413 0.228358
vt 0.430024 0.549280
vt 0.269696 0.488663
vt 0.269696 0.511337
vt 0.226305 0.488663
vt 0.226305 0.511337
vt 0.209706 0.488663
vt 0.209706 0.511337
vt 0.501259 0.174427
vt 0.381072 0.208620
vt 0.221523 0.488663
vt 0.221523 0.511337
vt 0.260599 0.488663
vt 0.260599 0.511337
vt 0.465072 0.124620
vt 0.430024 0.566767
vt 0.366946 0.549280
vt 0.361333 0.194279
vt 0.323109 0.488663
vt 0.323109 0.511337
vt 0.415265 0.088433
vt 0.366946 0.566767
vt 0.332579 0.549280
vt 0.402935 0.488663
vt 0.402935 0.511337
vt 0.338129 0.186739
vt 0.332579 0.566767
vt 0.356713 0.069408
vt 0.330287 0.549280
vt 0.330287 0.566767
vt 0.406234 0.627170
vt 0.424244 0.627170
vt 0.468009 0.807040
vt 0.461920 0.825691
vt 0.424244 0.607686
vt 0.406234 0.607686
vt 0.467521 0.627170
vt 0.549407 0.869393
vt 0.467521 0.607686
vt 0.564773 0.822331
vt 0.531827 0.627170
vt 0.531827 0.607686
vt 0.610868 0.627170
vt 0.467997 0.787293
vt 0.610868 0.607686
vt 0.696907 0.627170
vt 0.564743 0.772502
vt 0.696907 0.607686
vt 0.781522 0.627170
vt 0.461885 0.768382
vt 0.781522 0.607686
vt 0.856431 0.627170
vt 0.856431 0.607686
vt 0.549319 0.724783
vt 0.450271 0.752159
vt 0.914300 0.627170
vt 0.914300 0.607686
vt 0.949465 0.627170
vt 0.520013 0.683846
vt 0.949465 0.607686
vt 0.434291 0.740211
vt 0.958484 0.627170
vt 0.958484 0.607686
vt 0.940474 0.627170
vt 0.479692 0.653698
vt 0.940474 0.607686
vt 0.897198 0.627170
vt 0.415511 0.733708
vt 0.897198 0.607686
vt 0.832892 0.627170
vt 0.432303 0.637290
vt 0.832892 0.607686
vt 0.153976 0.620880
vt 0.162122 0.636868
vt 0.107579 0.654590
vt 0.164929 0.654590
vt 0.141288 0.608193
vt 0.162122 0.672312
vt 0.125301 0.600047
vt 0.153976 0.688299
vt 0.107579 0.597240
vt 0.141288 0.700986
vt 0.089857 0.600047
vt 0.125301 0.709132
vt 0.073870 0.608193
vt 0.107579 0.711939
vt 0.061182 0.620880
vt 0.089857 0.709132
vt 0.053036 0.636868
vt 0.073870 0.700986
vt 0.050229 0.654590
vt 0.061182 0.688299
vt 0.053036 0.672312
vt 0.113884 0.791002
vt 0.105738 0.806990
vt 0.059342 0.773280
vt 0.093051 0.819677
vt 0.116691 0.773280
vt 0.077064 0.827823
vt 0.113884 0.755558
vt 0.059342 0.830630
vt 0.105738 0.739571
vt 0.041620 0.827823
vt 0.093051 0.726884
vt 0.025632 0.819677
vt 0.077064 0.718738
vt 0.012945 0.806990
vt 0.059342 0.715931
vt 0.004799 0.791002
vt 0.041620 0.718738
vt 0.001992 0.773280
vt 0.025632 0.726884
vt 0.004799 0.755558
vt 0.012945 0.739571
vt 0.492262 0.488663
vt 0.492262 0.511337
vt 0.582346 0.488663
vt 0.582346 0.511337
vt 0.664370 0.488663
vt 0.664370 0.511337
vt 0.313731 0.186739
vt 0.295147 0.069408
vt 0.730304 0.488663
vt 0.730304 0.511337
vt 0.290527 0.194279
vt 0.360295 0.549280
vt 0.360295 0.566767
vt 0.773695 0.488663
vt 0.773695 0.511337
vt 0.236595 0.088433
vt 0.419665 0.549280
vt 0.270788 0.208620
vt 0.419665 0.566767
vt 0.502586 0.549280
vt 0.790294 0.488663
vt 0.790294 0.511337
vt 0.465072 0.402904
vt 0.381072 0.318904
vt 0.415264 0.439091
vt 0.361333 0.333245
vt 0.186788 0.124620
vt 0.256447 0.228358
vt 0.356712 0.458116
vt 0.338129 0.340784
vt 0.150601 0.174427
vt 0.502586 0.566767
vt 0.600940 0.549280
vt 0.295147 0.458116
vt 0.313731 0.340784
vt 0.248907 0.251563
vt 0.600940 0.566767
vt 0.131576 0.232979
vt 0.705101 0.549280
vt 0.705101 0.566767
vt 0.753851 0.627170
vt 0.753851 0.607686
vt 0.395768 0.733287
vt 0.382485 0.636228
vt 0.667812 0.627170
vt 0.667812 0.607686
vt 0.583196 0.627170
vt 0.376996 0.738989
vt 0.583196 0.607686
vt 0.508288 0.627170
vt 0.335115 0.650615
vt 0.508288 0.607686
vt 0.450419 0.627170
vt 0.361030 0.750256
vt 0.450419 0.607686
vt 0.415254 0.627170
vt 0.415254 0.607686
vt 0.294830 0.679045
vt 0.349436 0.765984
vt 0.520150 0.909081
vt 0.450325 0.841419
vt 0.479864 0.937510
vt 0.265572 0.718733
vt 0.434360 0.852686
vt 0.432494 0.951898
vt 0.343346 0.784635
vt 0.415587 0.858388
vt 0.382677 0.950835
vt 0.250207 0.765794
vt 0.395844 0.857967
vt 0.343358 0.804382
vt 0.250237 0.815623
vt 0.349470 0.823293
vt 0.265660 0.863342
vt 0.361085 0.839516
vt 0.294967 0.904279
vt 0.377064 0.851464
vt 0.335288 0.934427
vt 0.804872 0.549280
vt 0.804872 0.566767
vt 0.890486 0.549280
vt 0.890486 0.566767
vt 0.953565 0.549280
vt 0.953565 0.566767
vt 0.987932 0.549280
vt 0.987932 0.566767
vt 0.990223 0.549280
vt 0.990223 0.566767
vt 0.960215 0.549280
vt 0.960215 0.566767
vt 0.900845 0.549280
vt 0.900845 0.566767
vt 0.817925 0.549280
vt 0.817925 0.566767
vt 0.248907 0.275961
vt 0.131576 0.294544
vt 0.256447 0.299165
vt 0.150601 0.353096
vt 0.270788 0.318904
vt 0.186788 0.402904
vt 0.290526 0.333245
vt 0.236595 0.439091
vn 0.951057 0.000000 -0.309016
vn 0.809017 0.000000 -0.587785
vn 0.809017 0.000000 -0.587785
vn 0.951057 0.000000 -0.309016
vn 0.587785 0.000000 -0.809017
vn 0.587785 0.000000 -0.809017
vn 0.309017 0.000000 -0.951057
vn 0.309017 0.000000 -0.951057
vn -0.000000 0.000000 -1.000000
vn -0.000000 0.000000 -1.000000
vn -0.309017 0.000000 -0.951056
vn -0.309017 0.000000 -0.951056
vn -0.587785 0.000000 -0.809017
vn -0.587785 0.000000 -0.809017
vn -0.809017 0.000000 -0.587785
vn -0.809017 0.000000 -0.587785
vn -0.951057 0.000000 -0.309017
vn -0.951057 0.000000 -0.309017
vn -1.000000 0.000000 0.000000
vn -1.000000 0.000000 0.000000
vn -0.951057 0.000000 0.309017
vn -0.951057 0.000000 0.309017
vn -0.809017 0.000000 0.587785
vn -0.809017 0.000000 0.587785
vn -0.587785 0.000000 0.809017
vn -0.587785 0.000000 0.809017
vn -0.309017 0.000000 0.951057
vn -0.309017 0.000000 0.951057
vn 0.000000 0.000000 1.000000
vn 0.000000 0.000000 1.000000
vn 0.309017 0.000000 0.951057
vn 0.309017 0.000000 0.951057
vn 0.587785 0.000000 0.809017
vn 0.587785 0.000000 0.809017
vn 0.809017 0.000000 0.587785
vn 0.809017 0.000000 0.587785
vn 0.951057 0.000000 0.309017
vn 0.951057 0.000000 0.309017
vn 1.000000 0.000000 0.000001
vn 1.000000 0.000000 0.000001
vn 0.000000 -1.000000 -0.000000
vn 0.000000 -1.000000 -0.000000
vn 0.000000 -1.000000 -0.000000
vn 0.000000 -1.000000 -0.000000
vn 0.000000 -1.000000 -0.000000
vn 0.000000 -1.000000 0.000000
vn 0.000000 -1.000000 0.000000
vn 0.000000 -1.000000 0.000000
vn 0.000000 -1.000000 -0.000000
vn 0.000000 -1.000000 -0.000000
vn 0.000000 -1.000000 0.000000
vn 0.000000 -1.000000 0.000000
vn 0.000000 -1.000000 0.000000
vn 0.000000 -1.000000 0.000000
vn 0.000000 -1.000000 0.000000
vn 0.000000 -1.000000 0.000000
vn 0.000000 -1.000000 0.000000
vn 0.000000 -1.000000 0.000000
vn 0.000000 -1.000000 0.000000
vn 0.000000 -1.000000 0.000000
vn 0.000000 -1.000000 0.000000
vn 0.000000 1.000000 0.000000
vn 0.000000 1.000000 0.000000
vn 0.000000 1.000000 -0.000000
vn 0.000000 1.000000 -0.000000
vn 0.000000 1.000000 0.000000
vn 0.000000 1.000000 0.000000
vn 0.000000 1.000000 -0.000000
vn 0.000000 1.000000 0.000000
vn 0.000000 1.000000 0.000000
vn 0.000000 1.000000 -0.000000
vn 0.000000 1.000000 0.000000
vn 0.000000 1.000000 0.000000
vn 0.000000 1.000000 -0.000000
vn 0.000000 1.000000 0.000000
vn 0.000000 1.000000 0.000000
vn 0.000000 1.000000 0.000000
vn 0.000000 1.000000 0.000000
vn 0.000000 1.000000 0.000000
vn 0.000000 1.000000 0.000000
vn 0.000000 1.000000 0.000000
vn 0.000000 1.000000 0.000000
vn 0.951057 0.000000 -0.309016
vn 0.809017 0.000000 -0.587785
vn 0.809017 0.000000 -0.587785
vn 0.951057 0.000000 -0.309016
vn 0.587785 0.000000 -0.809017
vn 0.587785 0.000000 -0.809017
vn 0.309017 0.000000 -0.951057
vn 0.309017 0.000000 -0.951057
vn -0.000000 0.000000 -1.000000
vn -0.000000 0.000000 -1.000000
vn -0.309017 0.000000 -0.951056
vn -0.309017 0.000000 -0.951056
vn -0.587785 0.000000 -0.809017
vn -0.587785 0.000000 -0.809017
vn -0.809017 0.000000 -0.587785
vn -0.809017 0.000000 -0.587785
vn -0.951057 0.000000 -0.309017
vn -0.951057 0.000000 -0.309017
vn -1.000000 0.000000 0.000000
vn -1.000000 0.000000 0.000000
vn -0.951057 0.000000 0.309017
vn -0.951057 0.000000 0.309017
vn -0.809017 0.000000 0.587785
vn -0.809017 0.000000 0.587785
vn -0.587785 0.000000 0.809017
vn -0.587785 0.000000 0.809017
vn -0.309017 0.000000 0.951057
vn -0.309017 0.000000 0.951057
vn -0.000000 0.000000 1.000000
vn -0.000000 0.000000 1.000000
vn 0.309017 0.000000 0.951057
vn 0.309017 0.000000 0.951057
vn 0.587785 0.000000 0.809017
vn 0.587785 0.000000 0.809017
vn 0.809017 0.000000 0.587785
vn 0.809017 0.000000 0.587785
vn 0.951056 0.000000 0.309017
vn 0.951056 0.000000 0.309017
vn 1.000000 0.000000 0.000001
vn 1.000000 0.000000 0.000001
vn 0.118880 -0.992157 -0.038626
vn 0.101125 -0.992157 -0.073472
vn 0.101125 -0.992157 -0.073472
vn 0.118880 -0.992157 -0.038626
vn -0.101125 0.992157 0.073472
vn -0.118880 0.992157 0.038626
vn -0.118880 0.992157 0.038626
vn -0.101125 0.992157 0.073472
vn 0.073472 -0.992157 -0.101125
vn 0.073472 -0.992157 -0.101125
vn -0.073472 0.992157 0.101125
vn -0.073472 0.992157 0.101125
vn 0.038626 -0.992157 -0.118880
vn 0.038626 -0.992157 -0.118880
vn -0.038626 0.992157 0.118880
vn -0.038626 0.992157 0.118880
vn -0.000000 -0.992157 -0.124998
vn -0.000000 -0.992157 -0.124998
vn 0.000000 0.992157 0.124998
vn 0.000000 0.992157 0.124998
vn -0.038626 -0.992157 -0.118880
vn -0.038626 -0.992157 -0.118880
vn 0.038626 0.992157 0.118880
vn 0.038626 0.992157 0.118880
vn -0.073472 -0.992157 -0.101125
vn -0.073472 -0.992157 -0.101125
vn 0.073472 0.992157 0.101125
vn 0.073472 0.992157 0.101125
vn -0.101125 -0.992157 -0.073472
vn -0.101125 -0.992157 -0.073472
vn 0.101125 0.992157 0.073472
vn 0.101125 0.992157 0.073472
vn -0.118880 -0.992157 -0.038626
vn -0.118880 -0.992157 -0.038626
vn 0.118880 0.992157 0.038626
vn 0.118880 0.992157 0.038626
vn -0.124998 -0.992157 0.000000
vn -0.124998 -0.992157 0.000000
vn 0.124998 0.992157 0.000000
vn 0.124998 0.992157 -0.000000
vn -0.118880 -0.992157 0.038626
vn -0.118880 -0.992157 0.038626
vn 0.118880 0.992157 -0.038626
vn 0.118880 0.992157 -0.038626
vn -0.101125 -0.992157 0.073472
vn -0.101125 -0.992157 0.073472
vn 0.101125 0.992157 -0.073472
vn 0.101125 0.992157 -0.073472
vn -0.073472 -0.992157 0.101125
vn -0.073472 -0.992157 0.101125
vn 0.073472 0.992157 -0.101125
vn 0.073472 0.992157 -0.101125
vn -0.038626 -0.992157 0.118880
vn -0.038626 -0.992157 0.118880
vn 0.038626 0.992157 -0.118880
vn 0.038626 0.992157 -0.118880
vn 0.000000 -0.992157 0.124997
vn 0.000000 -0.992157 0.124997
vn 0.000000 0.992157 -0.124998
vn 0.000000 0.992157 -0.124998
vn 0.038626 -0.992157 0.118880
vn 0.038626 -0.992157 0.118880
vn -0.038626 0.992157 -0.118880
vn -0.038626 0.992157 -0.118880
vn 0.073472 -0.992157 0.101125
vn 0.073472 -0.992157 0.101125
vn -0.073472 0.992157 -0.101125
vn -0.073472 0.992157 -0.101125
vn 0.101125 -0.992157 0.073472
vn 0.101125 -0.992157 0.073472
vn -0.101125 0.992157 -0.073472
vn -0.101125 0.992157 -0.073472
vn 0.118880 -0.992157 0.038626
vn 0.118880 -0.992157 0.038626
vn -0.118880 0.992157 -0.038626
vn -0.118880 0.992157 -0.038626
vn 0.124997 -0.992157 0.000000
vn 0.124998 -0.992157 0.000000
vn -0.124998 0.992157 -0.000000
vn -0.124998 0.992157 -0.000000
vn -0.951057 0.000000 0.309016
vn -0.809017 0.000000 0.587785
vn -0.809017 0.000000 0.587785
vn -0.951057 0.000000 0.309016
vn -0.587785 0.000000 0.809017
vn -0.587785 0.000000 0.809017
vn -0.309017 0.000000 0.951057
vn -0.309017 0.000000 0.951057
vn 0.000000 0.000000 1.000000
vn 0.000000 0.000000 1.000000
vn 0.309017 0.000000 0.951057
vn 0.309017 0.000000 0.951057
vn 0.587785 0.000000 0.809017
vn 0.587785 0.000000 0.809017
vn 0.809017 0.000000 0.587785
vn 0.809017 0.000000 0.587785
vn 0.951057 0.000000 0.309017
vn 0.951057 0.000000 0.309017
vn 1.000000 0.000000 0.000000
vn 1.000000 0.000000 0.000000
vn 0.951057 0.000000 -0.309017
vn 0.951057 0.000000 -0.309017
vn 0.809017 0.000000 -0.587785
vn 0.809017 0.000000 -0.587785
vn 0.587785 0.000000 -0.809017
vn 0.587785 0.000000 -0.809017
vn 0.309017 0.000000 -0.951057
vn 0.309017 0.000000 -0.951057
vn -0.000000 0.000000 -1.000000
vn -0.000000 0.000000 -1.000000
vn -0.309017 0.000000 -0.951057
vn -0.309017 0.000000 -0.951057
vn -0.587785 0.000000 -0.809017
vn -0.587785 0.000000 -0.809017
vn -0.809017 0.000000 -0.587785
vn -0.809017 0.000000 -0.587785
vn -0.951056 0.000000 -0.309017
vn -0.951056 0.000000 -0.309017
vn -1.000000 0.000000 -0.000001
vn -1.000000 0.000000 -0.000001
s 1
g pCylinder1
usemtl initialShadingGroup
f 1/1/1 2/2/2 22/3/3 21/4/4
f 2/2/2 3/5/5 23/6/6 22/3/3
f 3/5/5 4/9/7 24/10/8 23/6/6
f 4/9/7 5/15/9 25/16/10 24/10/8
f 5/15/9 6/20/11 26/21/12 25/16/10
f 6/20/11 7/24/13 27/25/14 26/21/12
f 7/24/13 8/29/15 28/30/16 27/25/14
f 8/29/15 9/31/17 29/32/18 28/30/16
f 9/31/17 10/33/19 30/34/20 29/32/18
f 10/33/19 11/37/21 31/38/22 30/34/20
f 11/37/21 12/39/23 32/40/24 31/38/22
f 12/39/23 13/45/25 33/46/26 32/40/24
f 13/45/25 14/50/27 34/51/28 33/46/26
f 14/50/27 15/141/29 35/142/30 34/51/28
f 15/141/29 16/143/31 36/144/32 35/142/30
f 16/143/31 17/145/33 37/146/34 36/144/32
f 17/145/33 18/149/35 38/150/36 37/146/34
f 18/149/35 19/154/37 39/155/38 38/150/36
f 19/154/37 20/161/39 40/162/40 39/155/38
f 20/161/39 1/1/1 21/4/4 40/162/40
s 2
f 2/99/41 1/100/42 41/101/43
f 3/103/44 2/99/41 41/101/43
f 4/105/45 3/103/44 41/101/43
f 5/107/46 4/105/45 41/101/43
f 6/109/47 5/107/46 41/101/43
f 7/111/48 6/109/47 41/101/43
f 8/113/49 7/111/48 41/101/43
f 9/115/50 8/113/49 41/101/43
f 10/117/51 9/115/50 41/101/43
f 11/119/52 10/117/51 41/101/43
f 12/118/53 11/119/52 41/101/43
f 13/116/54 12/118/53 41/101/43
f 14/114/55 13/116/54 41/101/43
f 15/112/56 14/114/55 41/101/43
f 16/110/57 15/112/56 41/101/43
f 17/108/58 16/110/57 41/101/43
f 18/106/59 17/108/58 41/101/43
f 19/104/60 18/106/59 41/101/43
f 20/102/61 19/104/60 41/101/43
f 1/100/42 20/102/61 41/101/43
s 3
f 102/120/62 103/121/63 104/122/64
f 103/121/63 105/123/65 104/122/64
f 105/123/65 106/125/66 104/122/64
f 106/125/66 107/127/67 104/122/64
f 107/127/67 108/129/68 104/122/64
f 108/129/68 109/131/69 104/122/64
f 109/131/69 110/133/70 104/122/64
f 110/133/70 111/135/71 104/122/64
f 111/135/71 112/137/72 104/122/64
f 112/137/72 113/139/73 104/122/64
f 113/139/73 114/140/74 104/122/64
f 114/140/74 115/138/75 104/122/64
f 115/138/75 116/136/76 104/122/64
f 116/136/76 117/134/77 104/122/64
f 117/134/77 118/132/78 104/122/64
f 118/132/78 119/130/79 104/122/64
f 119/130/79 120/128/80 104/122/64
f 120/128/80 121/126/81 104/122/64
f 121/126/81 122/124/82 104/122/64
f 122/124/82 102/120/62 104/122/64
s 4
f 62/12/83 63/13/84 64/17/85 65/18/86
f 63/13/84 66/22/87 67/26/88 64/17/85
f 66/22/87 68/28/89 69/42/90 67/26/88
f 68/28/89 70/43/91 71/48/92 69/42/90
f 70/43/91 72/49/93 73/53/94 71/48/92
f 72/49/93 74/55/95 75/56/96 73/53/94
f 74/55/95 76/152/97 77/153/98 75/56/96
f 76/152/97 78/157/99 79/159/100 77/153/98
f 78/157/99 80/160/101 81/172/102 79/159/100
f 80/160/101 82/173/103 83/177/104 81/172/102
f 82/173/103 84/179/105 85/180/106 83/177/104
f 84/179/105 86/219/107 87/220/108 85/180/106
f 86/219/107 88/221/109 89/222/110 87/220/108
f 88/221/109 90/223/111 91/224/112 89/222/110
f 90/223/111 92/225/113 93/226/114 91/224/112
f 92/225/113 94/227/115 95/228/116 93/226/114
f 94/227/115 96/229/117 97/230/118 95/228/116
f 96/229/117 98/231/119 99/232/120 97/230/118
f 98/231/119 100/233/121 101/234/122 99/232/120
f 100/233/121 62/12/83 65/18/86 101/234/122
s 5
f 21/7/123 22/8/124 63/11/125 62/14/126
s 6
f 43/59/127 42/60/128 65/64/129 64/66/130
s 5
f 22/8/124 23/19/131 66/23/132 63/11/125
s 6
f 44/70/133 43/59/127 64/66/130 67/73/134
s 5
f 23/19/131 24/27/135 68/35/136 66/23/132
s 6
f 45/76/137 44/70/133 67/73/134 69/80/138
s 5
f 24/27/135 25/36/139 70/41/140 68/35/136
s 6
f 46/81/141 45/76/137 69/80/138 71/85/142
s 5
f 25/36/139 26/44/143 72/47/144 70/41/140
s 6
f 47/87/145 46/81/141 71/85/142 73/91/146
s 5
f 26/44/143 27/52/147 74/54/148 72/47/144
s 6
f 48/94/149 47/87/145 73/91/146 75/97/150
s 5
f 27/52/147 28/147/151 76/148/152 74/54/148
s 6
f 49/183/153 48/94/149 75/97/150 77/184/154
s 5
f 28/147/151 29/151/155 78/156/156 76/148/152
s 6
f 50/188/157 49/183/153 77/184/154 79/191/158
s 5
f 29/151/155 30/158/159 80/167/160 78/156/156
s 6
f 51/194/161 50/188/157 79/191/158 81/198/162
s 5
f 30/158/159 31/168/163 82/171/164 80/167/160
s 6
f 52/199/165 51/194/161 81/198/162 83/203/166
s 5
f 31/168/163 32/176/167 84/178/168 82/171/164
s 6
f 53/206/169 52/199/165 83/203/166 85/209/170
s 5
f 32/176/167 33/235/171 86/236/172 84/178/168
s 6
f 54/211/173 53/206/169 85/209/170 87/212/174
s 5
f 33/235/171 34/237/175 88/238/176 86/236/172
s 6
f 55/213/177 54/211/173 87/212/174 89/214/178
s 5
f 34/237/175 35/239/179 90/240/180 88/238/176
s 6
f 56/215/181 55/213/177 89/214/178 91/216/182
s 5
f 35/239/179 36/241/183 92/242/184 90/240/180
s 6
f 57/217/185 56/215/181 91/216/182 93/218/186
s 5
f 36/241/183 37/175/187 94/174/188 92/242/184
s 6
f 58/210/189 57/217/185 93/218/186 95/208/190
s 5
f 37/175/187 38/170/191 96/169/192 94/174/188
s 6
f 59/207/193 58/210/189 95/208/190 97/205/194
s 5
f 38/170/191 39/166/195 98/165/196 96/169/192
s 6
f 60/204/197 59/207/193 97/205/194 99/202/198
s 5
f 39/166/195 40/164/199 100/163/200 98/165/196
s 6
f 61/201/201 60/204/197 99/202/198 101/200/202
s 5
f 40/164/199 21/7/123 62/14/126 100/163/200
s 6
f 42/60/128 61/201/201 101/200/202 65/64/129
s 7
f 42/57/203 43/58/204 103/61/205 102/62/206
f 43/58/204 44/63/207 105/65/208 103/61/205
f 44/63/207 45/67/209 106/68/210 105/65/208
f 45/67/209 46/69/211 107/71/212 106/68/210
f 46/69/211 47/72/213 108/74/214 107/71/212
f 47/72/213 48/75/215 109/77/216 108/74/214
f 48/75/215 49/78/217 110/79/218 109/77/216
f 49/78/217 50/82/219 111/83/220 110/79/218
f 50/82/219 51/84/221 112/86/222 111/83/220
f 51/84/221 52/88/223 113/89/224 112/86/222
f 52/88/223 53/90/225 114/92/226 113/89/224
f 53/90/225 54/93/227 115/95/228 114/92/226
f 54/93/227 55/96/229 116/98/230 115/95/228
f 55/96/229 56/181/231 117/182/232 116/98/230
f 56/181/231 57/185/233 118/186/234 117/182/232
f 57/185/233 58/187/235 119/189/236 118/186/234
f 58/187/235 59/190/237 120/192/238 119/189/236
f 59/190/237 60/193/239 121/195/240 120/192/238
f 60/193/239 61/196/241 122/197/242 121/195/240
f 61/196/241 42/57/203 102/62/206 122/197/242
