# This file uses centimeters as units for non-parametric coordinates.

mtllib Clock.mtl
g default
v 236.742034 78.383935 -99.487231
v 234.400526 82.457028 -99.487231
v 230.336176 84.813673 -99.487231
v 225.638023 84.822415 -99.487231
v 221.564930 82.480907 -99.487231
v 219.208285 78.416557 -99.487231
v 219.199543 73.718403 -99.487231
v 221.541051 69.645311 -99.487231
v 225.605401 67.288665 -99.487231
v 230.303555 67.279923 -99.487231
v 234.376647 69.621431 -99.487231
v 236.733293 73.685782 -99.487231
v 236.742034 78.383935 -97.870717
v 234.400526 82.457028 -97.870717
v 230.336176 84.813673 -97.870717
v 225.638023 84.822415 -97.870717
v 221.564930 82.480907 -97.870717
v 219.208285 78.416557 -97.870717
v 219.199543 73.718403 -97.870717
v 221.541051 69.645311 -97.870717
v 225.605401 67.288665 -97.870717
v 230.303555 67.279923 -97.870717
v 234.376647 69.621431 -97.870717
v 236.733293 73.685782 -97.870717
v 227.970789 76.051169 -99.487231
v 235.636982 78.090040 -97.870717
v 233.590471 81.649980 -97.870717
v 230.038171 83.709722 -97.870717
v 225.931918 83.717363 -97.870717
v 222.371977 81.670852 -97.870717
v 220.312235 78.118552 -97.870717
v 220.304595 74.012298 -97.870717
v 222.351106 70.452358 -97.870717
v 225.903406 68.392616 -97.870717
v 230.009659 68.384976 -97.870717
v 233.569600 70.431487 -97.870717
v 235.629342 73.983787 -97.870717
v 235.636982 78.090040 -98.522878
v 233.590471 81.649980 -98.522878
v 227.970789 76.051169 -98.522878
v 230.038171 83.709722 -98.522878
v 225.931918 83.717363 -98.522878
v 222.371977 81.670852 -98.522878
v 220.312235 78.118552 -98.522878
v 220.304595 74.012298 -98.522878
v 222.351106 70.452358 -98.522878
v 225.903406 68.392616 -98.522878
v 230.009659 68.384976 -98.522878
v 233.569600 70.431487 -98.522878
v 235.629342 73.983787 -98.522878
vt 0.375000 0.312500
vt 0.395833 0.312500
vt 0.395833 0.688440
vt 0.375000 0.688440
vt 0.416667 0.312500
vt 0.416667 0.688440
vt 0.437500 0.312500
vt 0.437500 0.688440
vt 0.458333 0.312500
vt 0.458333 0.688440
vt 0.479167 0.312500
vt 0.479167 0.688440
vt 0.500000 0.312500
vt 0.500000 0.688440
vt 0.520833 0.312500
vt 0.520833 0.688440
vt 0.541667 0.312500
vt 0.541667 0.688440
vt 0.562500 0.312500
vt 0.562500 0.688440
vt 0.583333 0.312500
vt 0.583333 0.688440
vt 0.604167 0.312500
vt 0.604167 0.688440
vt 0.625000 0.312500
vt 0.625000 0.688440
vt 0.578125 0.020934
vt 0.635316 0.078125
vt 0.500000 0.150000
vt 0.500000 0.000000
vt 0.421875 0.020934
vt 0.364684 0.078125
vt 0.343750 0.156250
vt 0.364684 0.234375
vt 0.421875 0.291566
vt 0.500000 0.312500
vt 0.578125 0.291566
vt 0.635316 0.234375
vt 0.656250 0.156250
vt 0.635316 0.921875
vt 0.578125 0.979066
vt 0.500000 0.837500
vt 0.500000 1.000000
vt 0.421875 0.979066
vt 0.364684 0.921875
vt 0.343750 0.843750
vt 0.364684 0.765625
vt 0.421875 0.708434
vt 0.500000 0.687500
vt 0.578125 0.708434
vt 0.635316 0.765625
vt 0.656250 0.843750
vt 0.635316 0.921875
vt 0.578125 0.979066
vt 0.578125 0.979066
vt 0.635316 0.921875
vt 0.500000 1.000000
vt 0.500000 1.000000
vt 0.421875 0.979066
vt 0.421875 0.979066
vt 0.364684 0.921875
vt 0.364684 0.921875
vt 0.343750 0.843750
vt 0.343750 0.843750
vt 0.364684 0.765625
vt 0.364684 0.765625
vt 0.421875 0.708434
vt 0.421875 0.708434
vt 0.500000 0.687500
vt 0.500000 0.687500
vt 0.578125 0.708434
vt 0.578125 0.708434
vt 0.635316 0.765625
vt 0.635316 0.765625
vt 0.656250 0.843750
vt 0.656250 0.843750
vn 0.866954 0.498388 0.000000
vn 0.866954 0.498388 0.000000
vn 0.866954 0.498388 0.000000
vn 0.866954 0.498388 0.000000
vn 0.501610 0.865094 0.000000
vn 0.501610 0.865094 0.000000
vn 0.501610 0.865094 0.000000
vn 0.501610 0.865094 0.000000
vn 0.001861 0.999998 0.000000
vn 0.001861 0.999998 0.000000
vn 0.001861 0.999998 0.000000
vn 0.001861 0.999998 0.000000
vn -0.498388 0.866954 0.000000
vn -0.498388 0.866954 0.000000
vn -0.498388 0.866954 0.000000
vn -0.498388 0.866954 0.000000
vn -0.865094 0.501610 0.000000
vn -0.865094 0.501610 0.000000
vn -0.865094 0.501610 0.000000
vn -0.865094 0.501610 0.000000
vn -0.999998 0.001861 0.000000
vn -0.999998 0.001861 0.000000
vn -0.999998 0.001861 0.000000
vn -0.999998 0.001861 0.000000
vn -0.866954 -0.498388 0.000000
vn -0.866954 -0.498388 0.000000
vn -0.866954 -0.498388 0.000000
vn -0.866954 -0.498388 0.000000
vn -0.501610 -0.865094 0.000000
vn -0.501610 -0.865094 0.000000
vn -0.501610 -0.865094 0.000000
vn -0.501610 -0.865094 0.000000
vn -0.001861 -0.999998 0.000000
vn -0.001861 -0.999998 0.000000
vn -0.001861 -0.999998 0.000000
vn -0.001861 -0.999998 0.000000
vn 0.498388 -0.866954 0.000000
vn 0.498388 -0.866954 0.000000
vn 0.498388 -0.866954 0.000000
vn 0.498388 -0.866954 0.000000
vn 0.865094 -0.501610 0.000000
vn 0.865094 -0.501610 0.000000
vn 0.865094 -0.501610 0.000000
vn 0.865094 -0.501610 0.000000
vn 0.999998 -0.001861 0.000000
vn 0.999998 -0.001861 0.000000
vn 0.999998 -0.001861 0.000000
vn 0.999998 -0.001861 0.000000
vn 0.000000 -0.000000 -1.000000
vn 0.000000 -0.000000 -1.000000
vn 0.000000 -0.000000 -1.000000
vn 0.000000 -0.000000 -1.000000
vn 0.000000 -0.000000 -1.000000
vn 0.000000 -0.000000 -1.000000
vn 0.000000 -0.000000 -1.000000
vn 0.000000 -0.000000 -1.000000
vn 0.000000 -0.000000 -1.000000
vn 0.000000 -0.000000 -1.000000
vn 0.000000 -0.000000 -1.000000
vn 0.000000 -0.000000 -1.000000
vn 0.000000 -0.000000 -1.000000
vn 0.000000 0.000000 1.000000
vn -0.000000 -0.000000 1.000000
vn 0.000000 0.000000 1.000000
vn 0.000000 0.000000 1.000000
vn -0.000000 -0.000000 1.000000
vn 0.000000 0.000000 1.000000
vn 0.000000 0.000000 1.000000
vn 0.000000 0.000000 1.000000
vn 0.000000 0.000000 1.000000
vn 0.000000 0.000000 1.000000
vn 0.000000 0.000000 1.000000
vn -0.000000 -0.000000 1.000000
vn 0.000000 0.000000 1.000000
vn 0.000000 0.000000 1.000000
vn 0.000000 0.000000 1.000000
vn 0.000000 0.000000 1.000000
vn 0.000000 0.000000 1.000000
vn 0.000000 0.000000 1.000000
vn 0.000000 0.000000 1.000000
vn 0.000000 0.000000 1.000000
vn 0.000000 0.000000 1.000000
vn 0.000000 0.000000 1.000000
vn 0.000000 0.000000 1.000000
vn 0.000000 0.000000 1.000000
vn 0.000000 0.000000 1.000000
vn 0.000000 0.000000 1.000000
vn 0.000000 0.000000 1.000000
vn 0.000000 0.000000 1.000000
vn 0.000000 0.000000 1.000000
vn 0.000000 0.000000 1.000000
vn 0.000000 0.000000 1.000000
vn 0.000000 0.000000 1.000000
vn 0.000000 0.000000 1.000000
vn -0.000000 -0.000000 1.000000
vn -0.000000 -0.000000 1.000000
vn -0.000000 -0.000000 1.000000
vn -0.000000 -0.000000 1.000000
vn 0.000000 0.000000 1.000000
vn 0.000000 0.000000 1.000000
vn 0.000000 0.000000 1.000000
vn 0.000000 0.000000 1.000000
vn -0.000000 -0.000000 1.000000
vn -0.000000 -0.000000 1.000000
vn -0.000000 -0.000000 1.000000
vn -0.000000 -0.000000 1.000000
vn 0.000000 0.000000 1.000000
vn 0.000000 0.000000 1.000000
vn 0.000000 0.000000 1.000000
vn 0.000000 0.000000 1.000000
vn -0.000000 -0.000000 1.000000
vn -0.000000 -0.000000 1.000000
vn -0.000000 -0.000000 1.000000
vn -0.000000 -0.000000 1.000000
vn -0.000000 -0.000000 1.000000
vn -0.000000 -0.000000 1.000000
vn -0.000000 -0.000000 1.000000
vn -0.000000 -0.000000 1.000000
vn 0.000000 0.000000 1.000000
vn 0.000000 0.000000 1.000000
vn 0.000000 0.000000 1.000000
vn 0.000000 0.000000 1.000000
vn -0.866954 -0.498388 0.000000
vn -0.866954 -0.498388 0.000000
vn -0.866954 -0.498388 0.000000
vn -0.866954 -0.498388 0.000000
vn -0.501610 -0.865094 0.000000
vn -0.501610 -0.865094 0.000000
vn -0.501610 -0.865094 0.000000
vn -0.501610 -0.865094 0.000000
vn -0.001861 -0.999998 0.000000
vn -0.001861 -0.999998 0.000000
vn -0.001861 -0.999998 0.000000
vn -0.001861 -0.999998 0.000000
vn 0.498388 -0.866954 0.000000
vn 0.498388 -0.866954 0.000000
vn 0.498388 -0.866954 0.000000
vn 0.498388 -0.866954 0.000000
vn 0.865094 -0.501610 0.000000
vn 0.865094 -0.501610 0.000000
vn 0.865094 -0.501610 0.000000
vn 0.865094 -0.501610 0.000000
vn 0.999998 -0.001861 0.000000
vn 0.999998 -0.001861 0.000000
vn 0.999998 -0.001861 0.000000
vn 0.999998 -0.001861 0.000000
vn 0.866954 0.498388 0.000000
vn 0.866954 0.498388 0.000000
vn 0.866954 0.498388 0.000000
vn 0.866954 0.498388 0.000000
vn 0.501610 0.865094 0.000000
vn 0.501610 0.865094 0.000000
vn 0.501610 0.865094 0.000000
vn 0.501610 0.865094 0.000000
vn 0.001861 0.999998 0.000000
vn 0.001861 0.999998 0.000000
vn 0.001861 0.999998 0.000000
vn 0.001861 0.999998 0.000000
vn -0.498388 0.866954 0.000000
vn -0.498388 0.866954 0.000000
vn -0.498388 0.866954 0.000000
vn -0.498388 0.866954 0.000000
vn -0.865094 0.501610 0.000000
vn -0.865094 0.501610 0.000000
vn -0.865094 0.501610 0.000000
vn -0.865094 0.501610 0.000000
vn -0.999998 0.001861 0.000000
vn -0.999998 0.001861 0.000000
vn -0.999998 0.001861 0.000000
vn -0.999998 0.001861 0.000000
s off
g polySurface202 polySurface194
usemtl lambert2SG
f 1/1/1 2/2/2 14/3/3 13/4/4
f 2/2/5 3/5/6 15/6/7 14/3/8
f 3/5/9 4/7/10 16/8/11 15/6/12
f 4/7/13 5/9/14 17/10/15 16/8/16
f 5/9/17 6/11/18 18/12/19 17/10/20
f 6/11/21 7/13/22 19/14/23 18/12/24
f 7/13/25 8/15/26 20/16/27 19/14/28
f 8/15/29 9/17/30 21/18/31 20/16/32
f 9/17/33 10/19/34 22/20/35 21/18/36
f 10/19/37 11/21/38 23/22/39 22/20/40
f 11/21/41 12/23/42 24/24/43 23/22/44
f 12/23/45 1/25/46 13/26/47 24/24/48
s 1
f 2/27/49 1/28/50 25/29/51
f 3/30/52 2/27/49 25/29/51
f 4/31/53 3/30/52 25/29/51
f 5/32/54 4/31/53 25/29/51
f 6/33/55 5/32/54 25/29/51
f 7/34/56 6/33/55 25/29/51
f 8/35/57 7/34/56 25/29/51
f 9/36/58 8/35/57 25/29/51
f 10/37/59 9/36/58 25/29/51
f 11/38/60 10/37/59 25/29/51
f 12/39/61 11/38/60 25/29/51
f 1/28/50 12/39/61 25/29/51
s 2
f 38/40/62 39/41/63 40/42/64
f 39/41/63 41/43/65 40/42/64
f 41/43/65 42/44/66 40/42/64
f 42/44/66 43/45/67 40/42/64
f 43/45/67 44/46/68 40/42/64
f 44/46/68 45/47/69 40/42/64
f 45/47/69 46/48/70 40/42/64
f 46/48/70 47/49/71 40/42/64
f 47/49/71 48/50/72 40/42/64
f 48/50/72 49/51/73 40/42/64
f 49/51/73 50/52/74 40/42/64
f 50/52/74 38/40/62 40/42/64
s off
f 13/53/75 14/54/76 27/55/77 26/56/78
f 14/54/79 15/57/80 28/58/81 27/55/82
f 15/57/83 16/59/84 29/60/85 28/58/86
f 16/59/87 17/61/88 30/62/89 29/60/90
f 17/61/91 18/63/92 31/64/93 30/62/94
f 18/63/95 19/65/96 32/66/97 31/64/98
f 19/65/99 20/67/100 33/68/101 32/66/102
f 20/67/103 21/69/104 34/70/105 33/68/106
f 21/69/107 22/71/108 35/72/109 34/70/110
f 22/71/111 23/73/112 36/74/113 35/72/114
f 23/73/115 24/75/116 37/76/117 36/74/118
f 24/75/119 13/53/120 26/56/121 37/76/122
f 26/56/123 27/55/124 39/41/125 38/40/126
f 27/55/127 28/58/128 41/43/129 39/41/130
f 28/58/131 29/60/132 42/44/133 41/43/134
f 29/60/135 30/62/136 43/45/137 42/44/138
f 30/62/139 31/64/140 44/46/141 43/45/142
f 31/64/143 32/66/144 45/47/145 44/46/146
f 32/66/147 33/68/148 46/48/149 45/47/150
f 33/68/151 34/70/152 47/49/153 46/48/154
f 34/70/155 35/72/156 48/50/157 47/49/158
f 35/72/159 36/74/160 49/51/161 48/50/162
f 36/74/163 37/76/164 50/52/165 49/51/166
f 37/76/167 26/56/168 38/40/169 50/52/170
